<?xml version="1.0" standalone="no"?>
<!DOCTYPE svg PUBLIC "-//W3C//DTD SVG 20010904//EN"
 "http://www.w3.org/TR/2001/REC-SVG-20010904/DTD/svg10.dtd">
<svg version="1.0" xmlns="http://www.w3.org/2000/svg"
 width="1200.000000pt" height="1200.000000pt" viewBox="0 0 1200.000000 1200.000000"
 preserveAspectRatio="xMidYMid meet">

<g transform="translate(0.000000,1200.000000) scale(0.100000,-0.100000)"
fill="#000000" stroke="none">
<path d="M0 6000 l0 -6000 6000 0 6000 0 0 6000 0 6000 -6000 0 -6000 0 0
-6000z m3690 0 c0 -776 -2 -880 -15 -880 -13 0 -15 104 -15 880 0 776 2 880
15 880 13 0 15 -104 15 -880z m-1830 -10 l0 -640 640 0 c633 0 640 0 640 -20
0 -20 -7 -20 -640 -20 l-640 0 0 -35 c0 -28 -4 -35 -20 -35 -16 0 -20 7 -20
35 0 33 -2 35 -35 35 -28 0 -35 4 -35 20 0 16 7 20 35 20 l35 0 0 640 c0 633
0 640 20 640 20 0 20 -7 20 -640z m5073 538 c43 -23 46 -36 47 -201 l0 -159
31 27 c78 65 173 88 268 65 67 -16 111 -58 142 -135 22 -57 23 -71 24 -313 l0
-254 -28 -24 c-38 -32 -90 -32 -122 1 -25 24 -25 25 -25 232 0 114 -5 226 -10
247 -13 57 -48 88 -107 93 -69 7 -124 -22 -152 -80 -19 -40 -21 -60 -21 -256
0 -212 0 -212 -25 -236 -32 -33 -84 -33 -122 -1 l-28 24 0 467 0 467 28 24
c31 26 66 31 100 12z m-2003 -59 c64 -19 131 -78 165 -144 26 -51 30 -69 30
-139 0 -71 -4 -88 -29 -134 -17 -29 -44 -66 -62 -82 l-32 -28 25 -23 c38 -36
54 -74 69 -166 11 -72 18 -88 44 -113 62 -58 29 -130 -60 -130 -41 0 -55 5
-84 30 -47 42 -66 88 -76 182 -6 67 -12 84 -34 107 -26 26 -29 26 -181 29
l-155 3 0 -141 c0 -184 -12 -210 -97 -210 -25 0 -43 8 -64 29 l-29 29 0 430 0
429 26 27 27 26 240 0 c149 0 254 -4 277 -11z m4359 -75 c29 -24 31 -31 31
-90 l0 -64 69 0 c63 0 71 -2 90 -26 27 -35 26 -67 -3 -100 -20 -24 -32 -28
-90 -32 l-66 -4 0 -182 c0 -228 2 -232 87 -228 53 3 63 1 72 -16 45 -84 -42
-155 -167 -138 -94 13 -147 57 -163 137 -4 24 -8 130 -9 235 l0 191 -46 6
c-59 6 -88 34 -88 83 0 49 31 74 90 74 l44 0 0 44 c0 60 18 104 49 121 39 21
66 18 100 -11z m-3544 -158 c108 -49 192 -158 214 -279 12 -65 4 -97 -31 -121
-19 -14 -58 -16 -261 -16 l-239 0 7 -27 c9 -40 55 -93 101 -117 59 -31 155
-28 222 7 68 36 114 36 142 0 27 -35 20 -68 -24 -109 -70 -67 -211 -96 -335
-70 -88 18 -143 49 -200 111 -71 77 -86 121 -86 260 0 110 3 125 27 175 92
188 288 267 463 186z m837 9 c52 -18 108 -73 108 -106 0 -35 -29 -78 -57 -85
-20 -5 -41 1 -81 22 -68 37 -155 40 -217 8 -94 -49 -133 -196 -82 -306 14 -31
39 -66 59 -81 65 -50 175 -54 248 -9 19 12 45 22 57 22 29 0 71 -38 78 -71 19
-82 -173 -161 -336 -139 -196 27 -320 193 -306 410 11 173 102 293 262 347 52
17 204 10 267 -12z m1474 -10 c32 -16 62 -30 65 -32 3 -2 11 7 18 21 28 52 98
60 142 17 l29 -29 0 -322 0 -322 -29 -29 c-39 -39 -92 -40 -126 -3 -14 15 -25
31 -25 36 0 5 -15 -2 -33 -16 -55 -42 -106 -58 -184 -58 -165 0 -298 120 -334
300 -49 254 118 480 347 469 51 -3 86 -11 130 -32z m886 5 c26 -27 30 -36 25
-68 -4 -21 -16 -45 -29 -56 -23 -18 -25 -18 -138 0 -45 7 -95 -25 -124 -81
-19 -36 -21 -60 -24 -245 -1 -113 -5 -215 -7 -227 -6 -26 -52 -53 -89 -53 -14
0 -38 11 -53 24 l-28 24 0 325 c0 304 1 326 19 346 23 26 77 37 105 21 12 -6
30 -25 40 -41 l18 -29 19 21 c38 43 104 67 182 68 47 1 57 -3 84 -29z m1143
-9 c94 -47 129 -110 88 -160 -33 -39 -72 -37 -131 8 -78 59 -182 68 -217 18
-40 -57 -3 -98 128 -138 128 -40 166 -59 205 -103 74 -84 67 -195 -17 -276
-65 -63 -133 -84 -252 -78 -74 5 -101 11 -154 37 -70 35 -125 91 -125 129 0
13 14 37 30 54 39 38 75 33 132 -18 22 -20 55 -42 74 -50 44 -18 128 -18 164
1 25 13 30 22 30 52 0 20 -7 45 -16 54 -9 10 -75 37 -146 59 -109 35 -137 48
-174 82 -96 89 -82 241 30 316 57 39 113 52 203 49 68 -3 92 -9 148 -36z
m-7722 -21 c95 -48 152 -138 168 -264 13 -99 26 -133 71 -182 66 -71 181 -102
265 -71 17 7 52 27 78 45 51 36 95 114 95 170 0 28 3 32 26 32 26 0 27 -1 21
-49 -25 -209 -278 -326 -457 -211 -91 58 -126 119 -146 251 -16 110 -42 161
-108 210 -136 103 -336 41 -391 -120 -8 -24 -15 -54 -15 -66 0 -15 -7 -21 -25
-23 -30 -2 -31 9 -11 85 26 99 106 182 206 214 51 17 172 5 223 -21z"/>
<path d="M4550 6166 l0 -156 156 0 156 0 28 30 c60 64 62 182 6 247 l-24 28
-161 3 -161 3 0 -155z"/>
<path d="M5535 6095 c-45 -16 -91 -62 -101 -100 -4 -14 -5 -27 -3 -28 2 -1 79
-1 172 1 154 3 167 5 167 22 0 28 -49 81 -95 101 -48 22 -86 23 -140 4z"/>
<path d="M7865 6096 c-144 -64 -161 -316 -29 -409 81 -57 199 -33 259 52 25
36 30 54 34 118 4 88 -9 139 -46 184 -51 61 -149 85 -218 55z"/>
</g>
</svg>
